<?xml version="1.0" encoding="UTF-8" standalone="no"?> <svg height="520pt" viewBox="-16 -32 520.00142 520" width="520pt" xmlns="http://www.w3.org/2000/svg"><path d="m11.25 21.410156h62.257812l11.089844 10.648438v290.75c-.007812 32.121094 25.996094 58.183594 58.117188 58.261718h333.539062c6.207032 0 11.246094-5.039062 11.246094-11.25 0-6.214843-5.039062-11.25-11.246094-11.25h-333.542968c-19.699219-.0625-35.636719-16.0625-35.621094-35.761718v-295.539063c.003906-3.058593-1.246094-5.988281-3.453125-8.113281l-17.808594-17.109375c-2.097656-2.0078125-4.890625-3.132813-7.792969-3.132813h-66.785156c-6.210938 0-11.25 5.035157-11.25 11.25 0 6.210938 5.039062 11.246094 11.25 11.246094zm0 0"/><path d="m219.578125 419.179688c-.039063-19.148438-15.585937-34.640626-34.734375-34.609376-19.140625.023438-34.648438 15.558594-34.632812 34.703126.015624 19.148437 15.535156 34.660156 34.683593 34.660156 19.164063-.039063 34.679688-15.589844 34.683594-34.753906zm-46.871094 0c.039063-6.722657 5.511719-12.140626 12.230469-12.113282s12.152344 5.488282 12.136719 12.207032c-.011719 6.722656-5.460938 12.164062-12.183594 12.164062-6.742187-.03125-12.191406-5.515625-12.183594-12.257812zm0 0"/><path d="m384.546875 419.179688c.039063 19.144531 15.585937 34.636718 34.730469 34.613281 19.148437-.03125 34.648437-15.5625 34.632812-34.710938-.007812-19.140625-15.53125-34.652343-34.679687-34.660156-19.167969.039063-34.683594 15.589844-34.683594 34.757813zm46.871094 0c-.039063 6.71875-5.511719 12.140624-12.234375 12.113281-6.71875-.027344-12.148438-5.492188-12.132813-12.210938.007813-6.71875 5.460938-12.160156 12.179688-12.160156 6.75.027344 12.195312 5.511719 12.183593 12.257813zm0 0"/><path d="m366.59375 78.082031c.035156-14.144531-11.382812-25.648437-25.535156-25.714843h-71.417969c-14.148437.066406-25.566406 11.570312-25.535156 25.714843v16.605469h-52.851563c-22.074218.027344-39.964844 17.917969-39.996094 39.996094v161.695312c.027344 17.265625 11.105469 32.570313 27.5 37.992188v9.542968c0 6.210938 5.03125 11.25 11.25 11.25 6.207032 0 11.246094-5.039062 11.246094-11.25v-7.53125h221.230469v7.53125c0 6.210938 5.03125 11.25 11.246094 11.25 6.210937 0 11.25-5.039062 11.25-11.25v-9.160156c17.023437-5.007812 28.71875-20.621094 28.746093-38.367187v-161.703125c-.027343-22.078125-17.917968-39.96875-39.996093-39.996094h-67.128907zm-99.988281 0c-.050781-1.722656 1.308593-3.164062 3.035156-3.21875h71.417969c1.730468.054688 3.085937 1.496094 3.039062 3.21875v16.605469h-22.355468l-.875-.976562-1.089844.976562h-53.171875zm167.125 235.800781h-242.476563c-9.65625-.015624-17.480468-7.839843-17.496094-17.496093v-13.714844h277.472657v13.707031c-.011719 9.660156-7.839844 17.488282-17.5 17.503906zm17.5-179.199218v125.488281h-277.472657v-125.488281c.015626-9.660156 7.839844-17.484375 17.496094-17.5h120.453125l28.324219 31.472656v28.703125c0 2.957031 1.171875 5.792969 3.25 7.898437l46.914062 47.519532c2.113282 2.144531 4.996094 3.351562 8.003907 3.351562 3.007812 0 5.890625-1.207031 8.007812-3.351562l31.273438-31.675782c4.328125-4.382812 4.328125-11.425781 0-15.808593l-46.914063-47.519531c-2.113281-2.140626-4.992187-3.34375-7.996094-3.34375h-25.070312l-15.515625-17.25h91.746094c9.660156.015624 17.484375 7.84375 17.5 17.503906zm-88.699219 38.050781v-15.804687h15.332031l35.808594 36.273437-15.46875 15.667969zm0 0"/></svg>